<?xml version="1.0" standalone="no"?>
<!DOCTYPE svg PUBLIC "-//W3C//DTD SVG 20010904//EN"
 "http://www.w3.org/TR/2001/REC-SVG-20010904/DTD/svg10.dtd">
<svg version="1.0" xmlns="http://www.w3.org/2000/svg"
 width="704.000000pt" height="309.000000pt" viewBox="0 0 704.000000 309.000000"
 preserveAspectRatio="xMidYMid meet">

<g transform="translate(0.000000,309.000000) scale(0.100000,-0.100000)"
fill="#000000" stroke="none">
<path d="M5885 2968 c-9 -13 -37 -57 -64 -98 -45 -70 -227 -290 -254 -307 -11
-7 -197 -31 -249 -32 l-28 -1 21 53 c23 57 27 121 8 143 -19 23 -66 17 -99
-13 -16 -16 -56 -75 -88 -131 l-58 -104 -69 -29 c-86 -36 -176 -105 -198 -152
-26 -53 -22 -117 8 -149 13 -14 34 -29 45 -33 11 -3 20 -10 20 -16 0 -5 -31
-75 -68 -156 -38 -82 -81 -179 -98 -218 -23 -54 -47 -88 -111 -154 -45 -47
-85 -83 -88 -79 -10 10 26 100 77 190 49 85 50 89 34 113 -18 28 -56 33 -79
11 -8 -8 -29 -52 -47 -97 -33 -80 -35 -83 -119 -145 -47 -35 -89 -64 -93 -64
-4 0 17 50 47 111 30 62 55 122 55 134 0 25 -29 55 -52 55 -21 0 -88 -49 -180
-132 -43 -38 -78 -67 -78 -64 0 3 16 31 35 63 19 32 35 70 35 85 0 29 -23 58
-45 58 -14 0 -150 -104 -174 -133 -27 -33 -31 -16 -5 23 29 44 27 84 -5 95
-33 10 -51 -6 -82 -73 -17 -36 -50 -90 -72 -120 -44 -57 -129 -130 -135 -114
-5 16 25 81 89 189 50 85 59 105 50 122 -14 26 -48 36 -67 20 -9 -7 -24 -29
-34 -48 l-18 -36 -13 27 c-8 19 -24 31 -47 38 -65 18 -107 -15 -206 -163 -21
-32 -64 -81 -95 -109 -49 -45 -56 -49 -59 -30 -4 23 15 63 87 183 28 46 51 91
51 100 0 9 -9 24 -19 33 -26 24 -57 13 -77 -27 -9 -18 -18 -34 -20 -36 -2 -2
-13 9 -26 23 -27 31 -72 40 -108 21 -31 -16 -82 -69 -107 -112 -18 -30 -163
-143 -163 -127 0 10 60 113 103 176 41 61 43 89 6 109 -31 16 -54 2 -82 -49
-29 -53 -206 -230 -255 -256 -42 -22 -41 -10 4 78 43 84 43 126 1 140 -19 7
-34 7 -45 0 -21 -13 -107 -183 -124 -246 -11 -43 -10 -50 8 -75 29 -39 46 -47
88 -39 29 6 60 29 141 108 58 55 105 94 105 87 -1 -8 -11 -34 -23 -59 -18 -38
-45 -61 -167 -147 -80 -56 -149 -102 -153 -103 -4 0 -9 6 -11 12 -14 55 -45
134 -74 193 -44 91 -179 292 -281 423 -45 57 -81 110 -81 118 0 8 9 32 20 54
44 87 233 551 256 630 53 179 -2 250 -171 220 -201 -36 -399 -149 -456 -262
-65 -128 -19 -262 182 -531 l110 -148 -112 -267 c-164 -390 -367 -854 -378
-865 -12 -12 -128 13 -281 60 -392 119 -737 340 -932 596 -44 58 -65 77 -83
77 -37 0 -56 -11 -66 -37 -13 -34 17 -87 93 -169 248 -264 689 -490 1154 -589
l82 -18 -63 -141 c-35 -78 -82 -183 -106 -234 -38 -83 -41 -94 -28 -108 26
-25 43 -6 70 79 15 45 57 153 94 240 l68 159 31 -6 c17 -3 111 -9 209 -12 160
-6 177 -9 177 -25 0 -25 51 -64 117 -89 86 -32 174 -78 207 -108 41 -38 56
-82 56 -160 0 -69 10 -92 40 -92 28 0 50 34 61 95 17 94 154 446 315 810 112
252 117 261 193 312 36 24 68 43 72 43 3 0 4 -19 2 -43 -7 -58 19 -91 72 -91
32 0 44 8 91 56 l54 56 0 -39 c0 -30 5 -42 25 -55 33 -21 66 -12 114 31 45 41
51 42 51 13 1 -53 60 -83 108 -53 15 9 47 38 70 63 40 43 43 44 38 20 -14 -62
37 -102 94 -73 28 15 29 14 42 -13 11 -22 20 -27 47 -27 32 0 39 6 82 70 52
76 178 219 186 211 3 -3 -14 -45 -37 -93 -58 -117 -56 -168 6 -161 20 2 40 19
72 58 51 65 222 240 233 240 5 0 -16 -50 -46 -111 -30 -62 -55 -124 -55 -139
0 -31 27 -60 57 -60 17 0 87 42 159 95 20 15 20 14 16 -14 -13 -88 77 -114
151 -43 15 14 27 24 27 21 0 -2 -16 -49 -36 -104 -61 -169 -50 -234 38 -235
59 0 115 53 237 229 166 238 195 302 144 309 -17 3 -39 -23 -119 -139 -98
-141 -237 -299 -262 -299 -19 0 -9 59 35 200 39 127 59 173 73 165 39 -24 128
96 343 465 48 83 61 98 104 119 110 56 243 151 389 278 39 34 70 53 87 53 25
0 25 -1 -47 -157 -40 -87 -94 -205 -121 -263 -26 -58 -77 -168 -113 -245 -159
-347 -448 -1013 -553 -1279 -116 -291 -124 -327 -78 -341 28 -9 49 12 49 51 0
75 109 381 273 769 170 402 439 984 600 1297 l90 176 156 7 c194 10 703 0 913
-16 170 -14 188 -10 188 36 0 48 -7 49 -398 47 -202 -1 -469 -5 -594 -8 -126
-4 -228 -3 -228 1 0 9 58 115 137 246 35 59 63 114 63 122 0 21 -28 47 -50 47
-11 0 -26 -10 -35 -22z m-3667 -110 c28 -28 7 -135 -72 -358 -65 -183 -157
-423 -166 -433 -11 -13 -197 241 -239 328 -22 44 -42 100 -46 123 -17 107 49
198 195 272 131 66 296 100 328 68z m3000 -308 c-7 -25 -18 -42 -30 -46 -11
-3 -21 -4 -24 -2 -4 4 54 88 61 88 1 0 -2 -18 -7 -40z m476 25 c-4 -8 -11 -15
-16 -15 -6 0 -5 6 2 15 7 8 14 15 16 15 2 0 1 -7 -2 -15z m-229 -104 c-70 -62
-267 -201 -286 -201 -5 0 11 40 36 90 48 95 46 94 140 109 69 12 121 13 110 2z
m-295 -45 c0 -23 -93 -197 -112 -209 -26 -17 -78 -31 -78 -21 0 3 25 51 56
106 43 77 63 103 88 114 33 14 46 17 46 10z m-195 -146 c-45 -90 -50 -95 -79
-84 -34 13 -18 56 44 116 32 32 64 58 70 58 5 0 -10 -40 -35 -90z m14 -207
c-80 -133 -198 -298 -206 -289 -3 2 28 74 68 160 77 163 73 159 142 165 17 1
17 -2 -4 -36z m-2923 -233 c176 -237 283 -439 308 -581 l6 -36 -172 -131 c-95
-71 -204 -161 -243 -198 l-70 -69 -140 0 c-182 1 -259 11 -252 33 3 10 55 132
117 272 61 140 166 382 232 538 67 155 125 281 129 280 4 -2 42 -50 85 -108z
m1132 -167 c3 -29 -5 -41 -67 -103 -39 -38 -75 -70 -81 -70 -34 0 28 151 79
191 37 29 65 21 69 -18z m402 17 c6 -12 9 -29 5 -39 -7 -23 -139 -151 -155
-151 -31 0 19 121 73 178 36 37 62 41 77 12z m-916 -392 c-90 -227 -334 -778
-344 -778 -3 0 -13 13 -23 29 -9 16 -35 44 -57 61 -38 30 -161 89 -187 90 -21
0 -123 41 -123 49 0 4 39 16 88 25 53 11 122 34 178 60 154 73 229 172 243
320 l6 69 125 88 c69 48 126 86 128 84 2 -2 -13 -45 -34 -97z m-316 -185 c-29
-106 -113 -182 -262 -238 -119 -45 -121 -31 -12 64 103 89 262 211 276 211 5
0 4 -17 -2 -37z"/>
<path d="M4618 1948 c-31 -24 -27 -74 7 -90 52 -23 100 46 59 86 -19 19 -44
20 -66 4z"/>
<path d="M6040 1940 c-11 -11 -20 -27 -20 -35 0 -18 35 -55 53 -55 24 0 57 31
57 55 0 51 -54 71 -90 35z"/>
<path d="M6512 1863 c-7 -2 -22 -24 -34 -46 -23 -47 -76 -117 -87 -117 -4 0
-13 11 -19 24 -15 34 -57 59 -94 58 -46 -1 -88 -28 -133 -85 -61 -77 -194
-212 -201 -204 -10 10 24 93 79 190 48 84 49 88 33 112 -16 24 -39 31 -70 19
-8 -3 -29 -40 -47 -82 -17 -43 -44 -96 -60 -119 -33 -48 -129 -134 -141 -127
-4 3 -1 22 8 42 9 20 18 44 22 52 3 8 30 54 59 102 29 47 53 93 53 102 0 8
-11 23 -24 31 -32 21 -57 8 -81 -41 l-17 -36 -18 30 c-35 58 -126 43 -180 -29
-63 -84 -110 -193 -110 -255 0 -38 36 -84 65 -84 29 0 72 29 114 76 l41 47 0
-41 c0 -33 5 -45 24 -57 32 -21 64 -12 115 32 l41 35 0 -30 c0 -29 20 -54 53
-65 26 -9 67 10 108 49 l36 36 7 -29 c25 -98 106 -83 236 42 49 47 88 75 104
75 7 0 -34 -113 -48 -131 -6 -8 -57 -44 -114 -79 -122 -75 -127 -81 -112 -111
11 -20 17 -21 76 -16 40 4 64 3 64 -4 0 -18 -160 -373 -191 -423 -39 -64 -34
-99 13 -94 26 2 42 16 90 78 98 127 190 269 216 332 29 73 25 118 -13 158 -30
31 -30 33 -9 79 18 39 69 80 222 177 98 62 115 85 80 107 -13 9 -25 3 -60 -25
-60 -49 -159 -118 -170 -118 -5 0 1 19 14 43 37 70 101 180 125 216 26 38 29
60 11 84 -14 17 -56 29 -76 20z m-808 -169 c3 -9 6 -24 6 -34 0 -20 -102 -130
-137 -149 -21 -11 -23 -10 -23 17 0 15 12 51 26 80 40 81 112 129 128 86z
m585 -7 c6 -8 14 -28 17 -46 6 -28 2 -38 -32 -73 -82 -86 -154 -122 -154 -78
0 42 44 134 81 171 40 40 69 49 88 26z m49 -497 c2 -21 -7 -53 -27 -94 -33
-65 -129 -201 -137 -193 -5 5 48 136 105 260 34 73 54 82 59 27z"/>
</g>
</svg>
