<?xml version="1.0" standalone="no"?>
<!DOCTYPE svg PUBLIC "-//W3C//DTD SVG 20010904//EN"
 "http://www.w3.org/TR/2001/REC-SVG-20010904/DTD/svg10.dtd">
<svg version="1.0" xmlns="http://www.w3.org/2000/svg"
 width="323.000000pt" height="302.000000pt" viewBox="0 0 323.000000 302.000000"
 preserveAspectRatio="xMidYMid meet">

<g transform="translate(0.000000,302.000000) scale(0.100000,-0.100000)"
fill="#000000" stroke="none">
<path d="M2151 2809 c-101 -26 -265 -107 -324 -159 -119 -106 -129 -249 -30
-419 31 -53 135 -199 203 -286 l48 -60 -50 -120 c-183 -443 -425 -995 -441
-1012 -10 -10 -37 -7 -132 17 -123 30 -267 75 -346 107 -81 33 -293 144 -364
191 -147 96 -318 255 -393 365 -28 40 -38 47 -66 47 -37 0 -66 -25 -66 -57 0
-82 279 -333 520 -466 100 -55 295 -141 411 -180 105 -36 330 -97 358 -97 51
-1 52 1 -131 -402 -17 -37 -28 -74 -25 -82 8 -19 46 -21 51 -4 24 83 60 179
115 308 l66 155 40 -3 c22 -1 132 -3 245 -4 276 -3 376 18 544 116 81 48 118
92 187 220 46 87 53 107 57 172 5 72 4 74 -28 104 l-32 30 91 57 c218 138 216
137 216 163 0 33 -38 40 -68 12 -29 -27 -200 -132 -206 -127 -2 3 16 26 41 52
110 118 231 313 304 491 38 91 42 147 12 166 -42 26 -114 -87 -292 -464 -150
-316 -148 -313 -161 -317 -5 -1 -18 17 -28 42 -26 62 -175 287 -285 428 l-92
119 15 31 c78 178 228 541 253 615 39 115 43 201 12 232 -45 45 -109 50 -229
19z m173 -71 c7 -12 7 -35 -2 -80 -16 -79 -113 -367 -190 -561 -54 -138 -59
-147 -74 -130 -59 67 -180 242 -217 312 -76 147 -68 236 32 328 51 47 190 117
274 138 78 19 163 15 177 -7z m472 -958 c-37 -86 -95 -184 -103 -176 -3 3 26
63 63 135 37 72 70 129 72 126 2 -2 -12 -40 -32 -85z m-596 -100 c90 -125 166
-249 201 -328 16 -35 29 -67 29 -71 0 -5 -18 -16 -40 -26 -51 -23 -64 -39 -56
-70 5 -19 13 -25 34 -25 15 0 32 4 37 9 6 5 20 12 32 15 21 7 20 2 -16 -81
-39 -91 -75 -194 -86 -249 -5 -28 -15 -36 -74 -62 -75 -34 -157 -57 -238 -67
-105 -14 -397 -5 -425 12 -5 2 -1 18 8 35 9 17 61 134 116 262 105 242 309
716 335 776 l15 35 29 -35 c17 -19 61 -78 99 -130z m360 -513 c0 -18 -2 -19
-10 -7 -13 20 -13 43 0 35 6 -3 10 -16 10 -28z m-90 -129 c-10 -49 -49 -135
-49 -108 -1 16 35 136 45 152 11 18 12 3 4 -44z"/>
</g>
</svg>
