<?xml version="1.0" standalone="no"?>
<!DOCTYPE svg PUBLIC "-//W3C//DTD SVG 20010904//EN"
 "http://www.w3.org/TR/2001/REC-SVG-20010904/DTD/svg10.dtd">
<svg version="1.0" xmlns="http://www.w3.org/2000/svg"
 width="148.000000pt" height="148.000000pt" viewBox="0 0 148.000000 148.000000"
 preserveAspectRatio="xMidYMid meet">
<metadata>
Created by potrace 1.14, written by Peter Selinger 2001-2017
</metadata>
<g transform="translate(0.000000,148.000000) scale(0.100000,-0.100000)"
fill="#000000" stroke="none">
<path d="M277 1160 c-87 -22 -162 -82 -191 -152 -22 -51 -20 -143 3 -193 19
-44 69 -91 110 -107 14 -5 94 -30 176 -55 166 -50 195 -68 195 -120 0 -42 -47
-90 -98 -99 -107 -20 -203 20 -242 101 -22 45 -24 46 -59 41 -20 -3 -57 -8
-83 -12 -26 -3 -49 -12 -52 -19 -2 -7 12 -46 32 -86 58 -114 151 -174 294
-186 157 -14 310 54 365 161 24 45 28 153 9 198 -36 84 -94 120 -277 172 -194
54 -209 63 -209 120 0 38 23 62 75 81 79 27 171 -3 213 -69 14 -23 27 -43 29
-45 6 -9 165 23 169 34 6 14 -27 95 -38 95 -5 0 -8 5 -8 12 0 19 -72 79 -130
106 -45 22 -72 27 -150 29 -52 1 -112 -2 -133 -7z"/>
<path d="M881 1145 c-4 -5 -7 -199 -7 -430 l1 -420 85 -3 86 -3 -1 173 0 173
146 5 147 5 -2 80 -1 80 -140 0 c-77 0 -142 3 -145 7 -3 3 -5 44 -5 90 l0 83
183 3 183 2 -3 83 -3 82 -258 0 c-167 1 -261 -3 -266 -10z"/>
</g>
</svg>
